<svg xmlns="http://www.w3.org/2000/svg" width="800" height="600" fill="none">
  <rect width="800" height="600" fill="#f8f9fa" rx="8"/>
  
  <!-- Header mockup -->
  <rect x="0" y="0" width="800" height="80" fill="#6c757d" opacity="0.1"/>
  <rect x="20" y="25" width="120" height="30" fill="#6c757d" opacity="0.3" rx="4"/>
  <rect x="640" y="30" width="80" height="20" fill="#6c757d" opacity="0.2" rx="2"/>
  
  <!-- Hero section mockup -->
  <rect x="20" y="120" width="760" height="200" fill="#e9ecef" rx="8"/>
  <rect x="40" y="150" width="300" height="40" fill="#6c757d" opacity="0.4" rx="4"/>
  <rect x="40" y="210" width="500" height="20" fill="#6c757d" opacity="0.3" rx="2"/>
  <rect x="40" y="240" width="400" height="20" fill="#6c757d" opacity="0.2" rx="2"/>
  
  <!-- Mobile mockup icon -->
  <rect x="580" y="140" width="160" height="140" fill="#343a40" opacity="0.1" rx="20"/>
  <rect x="600" y="160" width="120" height="100" fill="#495057" opacity="0.2" rx="8"/>
  <circle cx="660" cy="210" r="15" fill="#007bff" opacity="0.6"/>
  
  <!-- Content sections -->
  <rect x="20" y="360" width="360" height="180" fill="#f8f9fa" stroke="#dee2e6" stroke-width="1" rx="8"/>
  <rect x="40" y="380" width="200" height="20" fill="#6c757d" opacity="0.4" rx="2"/>
  <rect x="40" y="410" width="320" height="15" fill="#6c757d" opacity="0.2" rx="2"/>
  <rect x="40" y="430" width="280" height="15" fill="#6c757d" opacity="0.2" rx="2"/>
  <rect x="40" y="450" width="300" height="15" fill="#6c757d" opacity="0.2" rx="2"/>
  
  <rect x="420" y="360" width="360" height="180" fill="#f8f9fa" stroke="#dee2e6" stroke-width="1" rx="8"/>
  <rect x="440" y="380" width="180" height="20" fill="#6c757d" opacity="0.4" rx="2"/>
  <rect x="440" y="410" width="320" height="15" fill="#6c757d" opacity="0.2" rx="2"/>
  <rect x="440" y="430" width="290" height="15" fill="#6c757d" opacity="0.2" rx="2"/>
  <rect x="440" y="450" width="310" height="15" fill="#6c757d" opacity="0.2" rx="2"/>
  
  <!-- Social media icons mockup -->
  <circle cx="100" cy="570" r="12" fill="#007bff" opacity="0.6"/>
  <circle cx="140" cy="570" r="12" fill="#dc3545" opacity="0.6"/>
  <circle cx="180" cy="570" r="12" fill="#ffc107" opacity="0.6"/>
  
  <!-- Text overlay -->
  <text x="400" y="50" text-anchor="middle" font-family="Arial, sans-serif" font-size="14" fill="#6c757d" opacity="0.6">Adla Mendes Portfolio</text>
</svg>